<svg id="Layer_1" data-name="Layer 1" xmlns="http://www.w3.org/2000/svg" viewBox="0 0 469 375"><defs><style>.cls-1{fill:#52c9ed;opacity:0.1;isolation:isolate;}.cls-2{fill:#f0f0f0;}.cls-3{fill:#e6e6e6;}.cls-4{fill:#3f3d56;}.cls-5{fill:#00b0ff;}.cls-6{fill:#ffb7b7;}.cls-7{fill:#fff;}.cls-8{fill:#55c7f3;}.cls-9{fill:#2f2e41;}</style></defs><path class="cls-1" d="M260.49-12.17c-30.06-1.25-58.7-12.84-86-25.53S120-64.45,90.67-71.17C71.8-75.49,50.21-76.1,35-64,20.36-52.36,15.63-32.3,13.09-13.66c-1.91,14-3,28.78,2.21,41.9C18.94,37.35,25.39,45,29.86,53.74c15.55,30.37,4.56,67.82-12.28,97.48C9.68,165.13.5,178.41-5.6,193.21S-14.52,225-9.18,240.09s17.89,26.22,31.55,34.13c27.73,16.06,60.39,20.66,92.26,23.26,70.54,5.77,141.45,3.27,212.17.77,26.17-.92,52.45-1.86,78.2-6.69,14.3-2.69,29.06-6.95,39.44-17.24,13.18-13.06,16.44-35.17,7.61-51.55-14.81-27.46-55.75-34.28-66.11-63.76-5.7-16.23.15-34.3,8.44-49.35,17.76-32.28,47.54-60.6,49.1-97.5,1.08-25.34-13.23-50.72-35.37-62.72-23.19-12.56-55.36-11-72.47,9.82C318-19.31,287-11.07,260.49-12.17Z" transform="translate(12 74)"/><path class="cls-2" d="M62.26,211.54H32.74a4.57,4.57,0,0,0-3.49,1.62,7,7,0,0,0-2.54,13.76,6.91,6.91,0,0,0,4.34-.59l3.45,28.95a4.6,4.6,0,0,0,4.41,3.26H58.09a4.6,4.6,0,0,0,4.41-3.26l4.16-37.77a4.61,4.61,0,0,0-3-5.77A4.74,4.74,0,0,0,62.26,211.54ZM28,225a5,5,0,0,1,0-10l.27,0a4.5,4.5,0,0,0,.07,2.44l2.11,6.86A5,5,0,0,1,28,225Z" transform="translate(12 74)"/><path class="cls-3" d="M410.91,187.54a8,8,0,1,0-8,8h.3a71.3,71.3,0,0,1,3.14,19.83,63.48,63.48,0,0,1-.58,10c-.34,2.36-1,5.06-3.33,6.16-1.75.83-.23,3.41,1.51,2.6,2.64-1.25,3.92-4,4.5-6.75a52.8,52.8,0,0,0,.9-10.64,74.15,74.15,0,0,0-3.21-21.9A8,8,0,0,0,410.91,187.54Z" transform="translate(12 74)"/><path id="a0da58c6-f23b-4b1c-a031-0451c6211c58-843" class="cls-3" d="M408.47,235.75s-10.73-26.41,21.45-46.21Z" transform="translate(12 74)"/><path id="fe698360-631b-4312-af6d-5610d78e8b38-844" class="cls-3" d="M407.89,235.27s-3.27-18.82-28.59-18.66Z" transform="translate(12 74)"/><path class="cls-2" d="M425.84,258.38h-44a4.51,4.51,0,0,1-4.05-2.53l-9.57-19.68a4.5,4.5,0,0,1,2.08-6,4.57,4.57,0,0,1,2-.45h63.14a4.51,4.51,0,0,1,4,6.47l-9.57,19.68A4.51,4.51,0,0,1,425.84,258.38Z" transform="translate(12 74)"/><path class="cls-4" d="M454.43,258.66H.57a.56.56,0,1,1,0-1.12H454.43a.56.56,0,1,1,0,1.12Z" transform="translate(12 74)"/><polygon class="cls-5" points="179.07 275.47 159.64 201.98 157.39 193.5 159.5 191.54 195.72 173.59 247.48 174.88 277.87 190.48 278.03 201.98 279.53 305.57 285.6 331 174.42 331 183.05 290.5 179.07 275.47"/><path class="cls-5" d="M294.93,257H266l-8-57.76L260.05,128l.29-9.69,5.53-1.81A35.15,35.15,0,0,1,276,128c3.56,6.19,6.51,15.06,5.77,27,0,0,.66,14.07,0,23.45C281.34,184.81,288.81,225.3,294.93,257Z" transform="translate(12 74)"/><path class="cls-5" d="M167.18,200.73l-.1.74L159.39,257H126.07c2.67-31.47,5.81-70.8,5.39-77.11-.62-9.37,0-23.45,0-23.45-.79-12.91,2.74-22.22,6.67-28.46a37.88,37.88,0,0,1,7.23-8.48,18.12,18.12,0,0,1,2-1.52l5.53,1.79,1.44,8.21Z" transform="translate(12 74)"/><path class="cls-6" d="M171,51.31A35.88,35.88,0,1,0,206.9,15.43h0A35.79,35.79,0,0,0,171,51.13Z" transform="translate(12 74)"/><path class="cls-4" d="M321.5,251.28h0a7.72,7.72,0,0,1-7.72,7.72H107.22a7.72,7.72,0,0,1-7.72-7.72h0a7.72,7.72,0,0,1,7.72-7.72h2.29a5.66,5.66,0,0,1-.2-1.42V136.69A6.7,6.7,0,0,1,116,130H305a6.7,6.7,0,0,1,6.71,6.71V242.14a5.24,5.24,0,0,1-.2,1.42h2.29A7.72,7.72,0,0,1,321.5,251.28Z" transform="translate(12 74)"/><path class="cls-7" d="M214.5,190.21a11.94,11.94,0,1,1,11.94-11.94A11.94,11.94,0,0,1,214.5,190.21Zm0-21.87a9.94,9.94,0,1,0,9.94,9.93h0A9.94,9.94,0,0,0,214.5,168.34Z" transform="translate(12 74)"/><circle class="cls-8" cx="222.5" cy="248.27" r="10.94"/><path class="cls-9" d="M247.54,21.5a24.34,24.34,0,0,1-6.88-8.36,11.3,11.3,0,0,0-2.38-3.32L231.5,15l4.15-7.22c-10.62-6.42-31.36-3-31.36-3C182.72-6.68,174.8,7.66,172,16.75a20,20,0,0,1-5.6,8.57c-5.32,5.07,3.06,14.94,3.06,14.94V41l2,13.58s2-9,7.28-15.32c3.33-4,8.74-6.36,11.26-6.31,32.46.63,38.61,1.92,38.61,1.92s5.49,3,7.92,4.19c7.84,4,5.93,18.52,5.93,18.52l5.86-25.76C249.71,25.54,249,22.67,247.54,21.5Z" transform="translate(12 74)"/><rect class="cls-6" x="205.72" y="158.55" width="28.34" height="14.5"/></svg>